<svg width="85" height="76" viewBox="0 0 85 76" fill="none" xmlns="http://www.w3.org/2000/svg">
<path d="M48.0019 32.121C52.9153 28.9286 54.315 22.336 51.1226 17.4227C47.9302 12.5093 41.3354 11.1062 36.4221 14.2986C31.5087 17.491 30.1056 24.0858 33.3002 29.0025C36.4958 33.9137 43.0884 35.3135 48.0019 32.121ZM38.1334 16.9325C41.5956 14.6829 46.243 15.6696 48.4946 19.1351C50.7442 22.5974 49.7575 27.2447 46.2952 29.4943C42.8329 31.7438 38.1824 30.7593 35.9328 27.297C33.6844 23.8293 34.6711 19.182 38.1334 16.9325ZM39.784 57.2865C39.3483 55.096 39.4759 53.1916 39.6081 51.1725C39.7138 49.5572 39.8253 47.9149 39.6195 46.1713L40.6787 46.3961C41.084 46.4822 41.5096 46.406 41.8601 46.1782C42.2073 45.9526 42.4553 45.5959 42.5392 45.1873L43.1817 42.1611C44.8513 42.0779 46.5061 41.7714 48.1083 41.2475L49.7939 43.8418C50.2664 44.569 51.2369 44.7722 51.9608 44.3019L57.5227 40.6881C58.2499 40.2156 58.4531 39.2451 57.9828 38.5212L56.2972 35.9269C57.4224 34.6834 58.375 33.2959 59.1337 31.7966L62.1545 32.438C63.0029 32.6181 63.8349 32.0775 64.015 31.2291L65.394 24.7478C65.5741 23.8994 65.0335 23.0674 64.1851 22.8872L61.1568 22.2414C61.0727 20.5632 60.7661 18.9084 60.2453 17.3182L62.8362 15.6348C63.5634 15.1623 63.7667 14.1917 63.2963 13.4678L59.6826 7.90592C59.2101 7.17875 58.2395 6.97551 57.5156 7.44585L54.9247 9.12927C53.6854 8.01055 52.2958 7.05475 50.7933 6.29811L51.4336 3.2687C51.6138 2.4203 51.0699 1.59041 50.2248 1.40814L43.7423 0.0346184C42.8939 -0.145511 42.0619 0.395083 41.8817 1.24349L41.2404 4.26423C39.5524 4.35478 37.8975 4.66134 36.3139 5.17787L34.6304 2.58693C34.1624 1.85223 33.193 1.6436 32.4658 2.11607L26.9039 5.72982C26.1767 6.2023 25.9735 7.17285 26.4438 7.89675L28.1272 10.4877C27.0085 11.727 26.056 13.1145 25.2907 14.618L22.2634 13.9809C21.4171 13.804 20.5851 14.3446 20.4062 15.1876L19.024 21.671C18.938 22.0763 19.0142 22.5019 19.2419 22.8524C19.4675 23.1996 19.8243 23.4476 20.2329 23.5316L23.259 24.1741C23.3465 25.8501 23.653 27.505 24.1727 29.1006L21.5784 30.7862C21.0543 31.1267 20.8034 31.7229 20.8778 32.3035C18.6397 32.6443 16.4317 33.4547 14.4107 34.7678C6.80814 39.7075 4.64233 49.9097 9.58177 57.5119C12.5017 62.006 15.8859 63.2497 19.16 64.4531C21.0565 65.1495 22.8505 65.8098 24.6751 67.098C25.5272 67.6997 26.5539 67.9177 27.5342 67.7559L30.9032 72.9411C31.4481 73.7797 32.252 74.3287 33.2322 74.5397L34.4859 74.8059C35.464 75.0136 36.425 74.8364 37.2635 74.2915L41.4169 71.5929C42.2555 71.0481 42.811 70.2399 43.0188 69.2618L43.285 68.0081C43.4926 67.03 43.3154 66.0691 42.7706 65.2305L39.3441 59.9568C39.7998 59.1669 39.9712 58.2269 39.784 57.2865ZM25.9361 31.7002C27.0989 30.9447 27.6069 29.4966 27.1717 28.1817C26.7208 26.8209 26.4569 25.4038 26.3882 23.9718C26.3245 22.5831 25.3306 21.412 23.971 21.1262L22.4147 20.7958L23.1431 17.3784L24.6973 17.7056C26.0591 17.9947 27.443 17.3285 28.0589 16.0897C28.708 14.8016 29.5216 13.6162 30.4799 12.5602C31.4327 11.5173 31.5555 10.0213 30.7872 8.83889L29.9232 7.50904L32.8548 5.60425L33.7189 6.9341C34.4744 8.09692 35.9224 8.60488 37.2374 8.16967C38.5862 7.72188 40.0054 7.46129 41.4473 7.38622C42.8359 7.32245 44.007 6.32863 44.2928 4.96904L44.6221 3.41813L48.0407 4.14113L47.7114 5.69203C47.4188 7.07 48.0671 8.41903 49.3261 9.05903C50.6196 9.70923 51.805 10.5228 52.8609 11.4812C53.8879 12.4165 55.4152 12.5374 56.578 11.7819L57.9079 10.9178L59.8126 13.8494L58.4828 14.7135C57.32 15.469 56.812 16.9171 57.2472 18.2321C57.6981 19.5928 57.9598 21.0065 58.0251 22.4548C58.0995 23.8599 59.0687 25.0003 60.4446 25.2896L61.9976 25.6222L61.2692 29.0396L59.7183 28.7103C58.3566 28.4211 56.9727 29.0874 56.3535 30.3282C55.7088 31.6089 54.8941 32.7997 53.9292 33.8598C52.9939 34.8868 52.873 36.4141 53.6285 37.5769L54.4947 38.91L51.563 40.8148L50.6969 39.4817C49.9414 38.3189 48.4933 37.8109 47.1783 38.2461C45.8089 38.698 44.3918 38.9619 42.9685 39.0296C41.5798 39.0933 40.4087 40.0871 40.1229 41.4467L39.7925 43.003L38.7906 42.7875C38.405 41.771 37.8757 40.7127 37.1522 39.599C34.3556 35.2949 29.8732 32.7337 25.1284 32.2206L25.9361 31.7002ZM20.2439 61.5129C17.1974 60.3944 14.5652 59.4261 12.2156 55.81C8.21881 49.6585 9.97176 41.4011 16.1235 37.4042C22.275 33.4073 30.5323 35.1603 34.5293 41.312C36.8806 44.9309 36.6942 47.7259 36.4783 50.9633L36.4782 50.9649C36.336 53.0976 36.1896 55.303 36.7062 57.8975C36.7317 58.03 36.726 58.1502 36.6965 58.2625C36.6159 58.2962 36.5363 58.3386 36.4609 58.3876L27.218 64.3884C27.0903 64.4714 26.9786 64.5719 26.8819 64.6813C26.7477 64.6753 26.6106 64.6293 26.4827 64.54C24.3286 63.0124 22.261 62.2534 20.2593 61.5185C20.2542 61.5166 20.2491 61.5147 20.2439 61.5129ZM36.9565 62.0346L38.0951 63.787L31.4883 68.0796L30.3497 66.3272L36.9565 62.0346ZM40.2199 67.3583L39.9537 68.612C39.9181 68.7795 39.8564 68.8709 39.7122 68.9645L35.5588 71.6631C35.418 71.7547 35.3094 71.774 35.1419 71.7384L33.8882 71.4722C33.7207 71.4366 33.6293 71.3749 33.5378 71.234L33.1973 70.71L39.8041 66.4173L40.1446 66.9414C40.2362 67.0822 40.2576 67.1941 40.2199 67.3583ZM7.72611 58.6666C8.19859 59.3938 7.98994 60.3632 7.26604 60.8336L5.57914 61.9296C4.85196 62.4021 3.88256 62.1934 3.41221 61.4695C2.93974 60.7423 3.14839 59.7729 3.87229 59.3026L5.55919 58.2066C6.28096 57.7329 7.25365 57.9395 7.72611 58.6666ZM1.24349 45.4055C0.395089 45.2254 -0.145503 44.3934 0.0346156 43.5449C0.214745 42.6965 1.04677 42.156 1.89518 42.3361L3.86221 42.7537C4.7106 42.9338 5.2512 43.7659 5.07108 44.6143C4.98158 45.0358 4.72934 45.386 4.39193 45.6052C4.05455 45.8244 3.63744 45.9138 3.21051 45.8231L1.24349 45.4055ZM10.9664 32.343L9.87037 30.656C9.3979 29.9289 9.60655 28.9595 10.3304 28.4891C11.0576 28.0167 12.027 28.2253 12.4974 28.9492L13.5934 30.6361C14.0659 31.3633 13.8572 32.3327 13.1333 32.803C12.4083 33.2788 11.4389 33.0701 10.9664 32.343ZM81.3063 43.11L72.9674 43.8837L73.9862 35.6938C73.9911 35.644 73.996 35.5943 73.9988 35.5412C74.0001 35.5217 73.9993 35.499 73.9985 35.4762C73.9988 35.448 73.9992 35.4199 73.9974 35.3884C73.9944 35.3624 73.9915 35.3363 73.9885 35.3103C73.9877 35.2875 73.9836 35.2669 73.9807 35.2409C73.9756 35.2116 73.9706 35.1822 73.9622 35.1551C73.957 35.1398 73.9571 35.1257 73.954 35.1138L71.4676 25.1999C71.3103 24.5707 70.7849 24.1061 70.1412 24.026C69.4975 23.9458 68.8728 24.2678 68.5681 24.8384L63.7162 33.8324C63.6231 34.0047 63.5635 34.1925 63.5396 34.3851L62.832 40.0714L57.7592 42.6454C57.6894 42.6814 57.6251 42.7186 57.5617 42.7644L50.7132 47.6101C50.6334 47.6665 50.5645 47.7253 50.5019 47.7939L43.9502 48.7014C43.54 48.7583 43.1658 48.9782 42.9149 49.3089C42.6639 49.6396 42.5549 50.0598 42.6119 50.47L44.9983 67.6507C45.1182 68.5092 45.9086 69.109 46.767 68.9891L54.2618 67.9486C54.4972 67.9167 54.7128 67.8326 54.8995 67.7113C55.2827 67.4623 55.5422 67.0514 55.5975 66.5916L59.5459 66.388L59.2992 68.3743C59.3002 68.383 59.2957 68.3905 59.2967 68.3992C59.2977 68.4079 59.2966 68.4133 59.2943 68.4241L59.0297 70.5478C58.9029 71.5572 59.1782 72.5616 59.8036 73.3665C60.4311 74.1745 61.3363 74.6858 62.3458 74.8126L65.2149 75.1705C66.1139 75.2851 67.0081 75.0768 67.7614 74.5874C67.8531 74.5278 67.946 74.4628 68.0313 74.3934C68.8394 73.7658 69.3507 72.8607 69.4775 71.8512L69.742 69.7275C69.7443 69.7167 69.7466 69.7059 69.7489 69.6951C69.7512 69.6843 69.7514 69.6702 69.7537 69.6594L70.2323 65.836L77.6694 65.4526C77.6922 65.4518 77.715 65.451 77.741 65.4481C78.2508 65.401 78.7198 65.2267 79.1195 64.967C80.0465 64.3647 80.6172 63.2858 80.5064 62.1187C80.5064 62.1187 80.4578 61.5493 80.3488 60.4137C80.3441 60.3562 80.3361 60.3008 80.3302 60.2487C81.3824 59.6815 82.0549 58.5226 81.9387 57.2611C81.9387 57.2611 81.8858 56.6992 81.781 55.5701C81.7763 55.5126 81.7704 55.4606 81.7624 55.4052C82.1091 55.2219 82.4198 54.9687 82.6793 54.6511C83.2003 54.0191 83.4481 53.2246 83.3699 52.4089C83.3678 52.4056 83.3149 51.8437 83.2144 50.7211C83.2096 50.6637 83.2016 50.6083 83.1936 50.553C84.2458 49.9857 84.915 48.8289 84.8021 47.5653C84.8021 47.5653 84.747 47.0002 84.6444 45.8743C84.4833 44.1995 82.9875 42.9586 81.3063 43.11ZM66.4552 36.3343L67.0135 36.4048L65.9998 44.5308L65.4238 44.5836L66.4552 36.3343ZM69.1974 44.2328L70.125 36.7916L70.6811 36.8588L69.7712 44.1767L69.1974 44.2328ZM70.3527 33.6576L69.0188 33.4901C68.9972 33.4855 68.9756 33.4809 68.9561 33.4796C68.9345 33.475 68.9117 33.4758 68.8922 33.4745L67.5551 33.3092L69.4006 29.8833L70.3527 33.6576ZM45.9317 51.5931L50.3248 50.9841L52.2755 65.0563L47.8857 65.6632L45.9317 51.5931ZM66.1063 71.9178C66.0221 71.9819 65.8443 72.0881 65.6052 72.0571L62.7307 71.6981C62.4883 71.6692 62.3416 71.5223 62.2776 71.4381C62.2136 71.3539 62.1073 71.1761 62.1383 70.937L62.2115 70.3398L66.4373 70.8643L66.3609 71.4636C66.3375 71.7071 66.1905 71.8538 66.1063 71.9178ZM66.8294 67.7539L62.6036 67.2294L62.7292 66.2254L67.0484 66.0045L66.8294 67.7539ZM81.6715 47.7876L79.8742 47.9539L79.8709 47.956C79.0097 48.0357 78.3734 48.7985 78.4531 49.6598C78.5287 50.5004 79.257 51.1266 80.0907 51.0833C80.1683 51.9412 80.2164 52.4597 80.2348 52.6387L78.4429 52.8061C77.5817 52.8858 76.9487 53.6465 77.0251 54.5099C77.1008 55.3505 77.8269 55.9734 78.6595 55.9355C78.7413 56.8 78.7873 57.3152 78.8015 57.4876L77.0095 57.655L77.0063 57.6571C76.145 57.7369 75.5087 58.4997 75.5884 59.361C75.6641 60.2015 76.3924 60.8278 77.2261 60.7845C77.306 61.6316 77.3519 62.1468 77.366 62.3333L68.7525 62.7776C68.7331 62.7763 68.7124 62.7804 68.6929 62.7791L61.2644 63.1615C61.2384 63.1644 61.2135 63.162 61.1875 63.1649L55.215 63.4725L53.2963 49.6215L59.2685 45.3918L62.3511 43.8269L62.0627 46.1291L62.0616 46.1345C62.0568 46.1702 62.0553 46.2037 62.056 46.2406C62.0547 46.2601 62.0534 46.2795 62.052 46.299L62.0545 46.3673C62.0563 46.3988 62.0548 46.4323 62.0599 46.4616C62.062 46.4649 62.0587 46.467 62.0608 46.4703C62.0607 46.4844 62.0638 46.4964 62.069 46.5116C62.073 46.5463 62.079 46.5843 62.0829 46.619C62.087 46.6397 62.0923 46.6549 62.0963 46.6755C62.1035 46.7081 62.1086 46.7374 62.1191 46.7679C62.1253 46.7918 62.1348 46.8136 62.141 46.8375C62.1494 46.8647 62.1589 46.8865 62.1672 46.9136C62.1788 46.9387 62.1905 46.9638 62.2021 46.9888C62.2033 46.9916 62.2045 46.9943 62.2056 46.997C62.2135 47.0153 62.2206 47.0316 62.2317 47.0488C62.2433 47.0738 62.2604 47.1 62.2753 47.1229C62.2859 47.1393 62.2954 47.1611 62.306 47.1775C62.3209 47.2004 62.3379 47.2266 62.3561 47.2474C62.3689 47.2671 62.3828 47.2813 62.3956 47.301C62.4138 47.3218 62.4298 47.3393 62.448 47.3601C62.464 47.3776 62.4822 47.3984 62.4982 47.4159C62.5143 47.4335 62.5336 47.4489 62.5475 47.4631C62.569 47.4818 62.5871 47.5026 62.6086 47.5213C62.6258 47.5334 62.6397 47.5476 62.6569 47.5598C62.6783 47.5784 62.7031 47.595 62.7278 47.6115C62.745 47.6236 62.76 47.6325 62.7772 47.6446C62.802 47.6611 62.8267 47.6777 62.8547 47.6921C62.8752 47.7021 62.8956 47.7121 62.9128 47.7242C62.9387 47.7354 62.9613 47.7486 62.9872 47.7598C63.013 47.7709 63.0368 47.7788 63.0626 47.7899C63.0864 47.7978 63.1068 47.8078 63.1285 47.8124C63.1597 47.8246 63.1922 47.8315 63.2267 47.8417C63.2429 47.8451 63.2613 47.8518 63.2775 47.8553C63.3153 47.8633 63.3564 47.8692 63.3942 47.8773C63.405 47.8796 63.4158 47.8818 63.4267 47.8841L63.4321 47.8853C63.4678 47.89 63.5013 47.8915 63.5349 47.893C63.5544 47.8943 63.5739 47.8956 63.5934 47.8969C63.6161 47.8961 63.6356 47.8974 63.6584 47.8966C63.6898 47.8948 63.7234 47.8963 63.7581 47.8924C63.7614 47.8903 63.7635 47.8935 63.7668 47.8914L71.2412 47.1997C71.2867 47.198 71.3301 47.1931 71.3767 47.1861L81.5216 46.2453C81.6036 47.0957 81.654 47.6174 81.6715 47.7876ZM19.5377 66.7293C20.3861 66.9094 20.9267 67.7414 20.7466 68.5898L20.3289 70.5568C20.2395 70.9783 19.9872 71.3286 19.6498 71.5478C19.3124 71.767 18.8953 71.8563 18.4684 71.7657C17.62 71.5856 17.0794 70.7536 17.2595 69.9051L17.6771 67.9381C17.8573 67.0897 18.6893 66.5491 19.5377 66.7293Z" fill="black"/>
<path fill-rule="evenodd" clip-rule="evenodd" d="M25.9361 31.7002C27.0989 30.9447 27.6069 29.4966 27.1717 28.1817C26.7208 26.8209 26.4569 25.4038 26.3882 23.9718C26.3245 22.5831 25.3306 21.412 23.971 21.1262L22.4147 20.7958L23.1431 17.3784L24.6973 17.7056C26.0591 17.9947 27.443 17.3285 28.0589 16.0897C28.708 14.8016 29.5216 13.6162 30.4799 12.5602C31.4327 11.5173 31.5555 10.0213 30.7872 8.83889L29.9232 7.50904L32.8548 5.60425L33.7189 6.9341C34.4744 8.09692 35.9224 8.60488 37.2374 8.16967C38.5862 7.72188 40.0054 7.46129 41.4473 7.38622C42.8359 7.32245 44.007 6.32863 44.2928 4.96904L44.6221 3.41813L48.0407 4.14113L47.7114 5.69203C47.4188 7.07 48.0671 8.41903 49.3261 9.05903C50.6196 9.70923 51.805 10.5228 52.8609 11.4812C53.8879 12.4165 55.4152 12.5374 56.578 11.7819L57.9079 10.9178L59.8126 13.8494L58.4828 14.7135C57.32 15.469 56.812 16.9171 57.2472 18.2321C57.6981 19.5928 57.9598 21.0065 58.0251 22.4548C58.0995 23.8599 59.0687 25.0003 60.4446 25.2896L61.9976 25.6222L61.2692 29.0396L59.7183 28.7103C58.3566 28.4211 56.9727 29.0874 56.3535 30.3282C55.7088 31.6089 54.8941 32.7997 53.9292 33.8598C52.9939 34.8868 52.873 36.4141 53.6285 37.5769L54.4947 38.91L51.563 40.8148L50.6969 39.4817C49.9414 38.3189 48.4933 37.8109 47.1783 38.2461C45.8089 38.698 44.3918 38.9619 42.9685 39.0296C41.5798 39.0933 40.4087 40.0871 40.1229 41.4467L39.7925 43.003L38.7906 42.7875C38.405 41.771 37.8757 40.7127 37.1522 39.599C34.3556 35.2949 29.8732 32.7337 25.1284 32.2206L25.9361 31.7002ZM51.1226 17.4227C54.315 22.336 52.9153 28.9286 48.0019 32.121C43.0884 35.3135 36.4958 33.9137 33.3002 29.0025C30.1056 24.0858 31.5087 17.491 36.4221 14.2986C41.3354 11.1062 47.9302 12.5093 51.1226 17.4227Z" fill="#C3C3C3"/>
<path d="M20.2439 61.5129C17.1974 60.3944 14.5652 59.4261 12.2156 55.81C8.21881 49.6585 9.97176 41.4011 16.1235 37.4042C22.275 33.4073 30.5323 35.1603 34.5293 41.312C36.8806 44.9309 36.6942 47.7259 36.4783 50.9633L36.4782 50.9649C36.336 53.0976 36.1896 55.303 36.7062 57.8975C36.7317 58.03 36.726 58.1502 36.6965 58.2625C36.6159 58.2962 36.5363 58.3386 36.4609 58.3876L27.218 64.3884C27.0903 64.4714 26.9786 64.5719 26.8819 64.6813C26.7477 64.6753 26.6106 64.6293 26.4827 64.54C24.3286 63.0124 22.261 62.2534 20.2593 61.5185L20.2439 61.5129Z" fill="#F0F5A8"/>
<path d="M38.1334 16.9325C41.5956 14.6829 46.243 15.6696 48.4946 19.1351C50.7442 22.5974 49.7575 27.2447 46.2952 29.4943C42.8329 31.7438 38.1824 30.7593 35.9328 27.297C33.6844 23.8293 34.6711 19.182 38.1334 16.9325Z" fill="#FFFBFB"/>
<path d="M81.6715 47.7876L79.8742 47.9539L79.8709 47.956C79.0097 48.0357 78.3734 48.7985 78.4531 49.6598C78.5287 50.5004 79.257 51.1266 80.0907 51.0833C80.1683 51.9412 80.2164 52.4597 80.2348 52.6387L78.4429 52.8061C77.5817 52.8858 76.9487 53.6465 77.0251 54.5099C77.1008 55.3505 77.8269 55.9734 78.6595 55.9355C78.7413 56.8 78.7873 57.3152 78.8015 57.4876L77.0095 57.655L77.0063 57.6571C76.145 57.7369 75.5087 58.4997 75.5884 59.361C75.6641 60.2015 76.3924 60.8278 77.2261 60.7845C77.306 61.6316 77.3519 62.1468 77.366 62.3333L68.7525 62.7776C68.7331 62.7763 68.7124 62.7804 68.6929 62.7791L61.2644 63.1615C61.2384 63.1644 61.2135 63.162 61.1875 63.1649L55.215 63.4725L53.2963 49.6215L59.2685 45.3918L62.3511 43.8269L62.0627 46.1291L62.0616 46.1345C62.0568 46.1702 62.0553 46.2037 62.056 46.2406L62.052 46.299L62.0545 46.3673C62.0563 46.3988 62.0548 46.4323 62.0599 46.4616C62.062 46.4649 62.0587 46.467 62.0608 46.4703C62.0607 46.4844 62.0638 46.4964 62.069 46.5116C62.073 46.5463 62.079 46.5843 62.0829 46.619C62.087 46.6397 62.0923 46.6549 62.0963 46.6755C62.1035 46.7081 62.1086 46.7374 62.1191 46.7679C62.1253 46.7918 62.1348 46.8136 62.141 46.8375C62.1494 46.8647 62.1589 46.8865 62.1672 46.9136L62.2021 46.9888L62.2056 46.997C62.2135 47.0153 62.2206 47.0316 62.2317 47.0488C62.2433 47.0738 62.2604 47.1 62.2753 47.1229C62.2859 47.1393 62.2954 47.1611 62.306 47.1775C62.3209 47.2004 62.3379 47.2266 62.3561 47.2474C62.3689 47.2671 62.3828 47.2813 62.3956 47.301C62.4138 47.3218 62.4298 47.3393 62.448 47.3601C62.464 47.3776 62.4822 47.3984 62.4982 47.4159C62.5143 47.4335 62.5336 47.4489 62.5475 47.4631C62.569 47.4818 62.5871 47.5026 62.6086 47.5213C62.6258 47.5334 62.6397 47.5476 62.6569 47.5598C62.6783 47.5784 62.7031 47.595 62.7278 47.6115C62.745 47.6236 62.76 47.6325 62.7772 47.6446C62.802 47.6611 62.8267 47.6777 62.8547 47.6921C62.8752 47.7021 62.8956 47.7121 62.9128 47.7242C62.9387 47.7354 62.9613 47.7486 62.9872 47.7598C63.013 47.7709 63.0368 47.7788 63.0626 47.7899C63.0864 47.7978 63.1068 47.8078 63.1285 47.8124C63.1597 47.8246 63.1922 47.8315 63.2267 47.8417C63.2429 47.8451 63.2613 47.8518 63.2775 47.8553C63.3153 47.8633 63.3564 47.8692 63.3942 47.8773L63.4267 47.8841L63.4321 47.8853C63.4678 47.89 63.5013 47.8915 63.5349 47.893L63.5934 47.8969C63.6161 47.8961 63.6356 47.8974 63.6584 47.8966C63.6898 47.8948 63.7234 47.8963 63.7581 47.8924C63.7614 47.8903 63.7635 47.8935 63.7668 47.8914L71.2412 47.1997C71.2867 47.198 71.3301 47.1931 71.3767 47.1861L81.5216 46.2453C81.6036 47.0957 81.654 47.6174 81.6715 47.7876Z" fill="white"/>
<path d="M45.9317 51.5931L50.3248 50.9841L52.2755 65.0563L47.8857 65.6632L45.9317 51.5931Z" fill="white"/>
<path d="M36.9565 62.0346L38.0951 63.787L31.4883 68.0796L30.3497 66.3272L36.9565 62.0346Z" fill="#D8D6D6"/>
<path d="M40.2199 67.3583L39.9537 68.612C39.9181 68.7795 39.8564 68.8709 39.7122 68.9645L35.5588 71.6631C35.418 71.7547 35.3094 71.774 35.1419 71.7384L33.8882 71.4722C33.7207 71.4366 33.6293 71.3749 33.5378 71.234L33.1973 70.71L39.8041 66.4173L40.1446 66.9414C40.2362 67.0822 40.2576 67.1941 40.2199 67.3583Z" fill="#D8D8D8"/>
</svg>
