<svg width="100" height="125" viewBox="0 0 100 125" fill="none" xmlns="http://www.w3.org/2000/svg">
<path d="M21.5 16.26C21.04 16.68 21.01 17.39 21.42 17.84L29.13 26.32C29.35 26.57 29.66 26.69 29.96 26.69C30.23 26.69 30.5 26.59 30.71 26.4C31.17 25.98 31.2 25.27 30.79 24.82L23.08 16.34C22.66 15.88 21.96 15.85 21.5 16.26Z" fill="black"/>
<path d="M26.77 32.61C27.22 32.61 27.65 32.33 27.82 31.88C28.04 31.3 27.74 30.65 27.16 30.44L15.66 26.15C15.08 25.94 14.43 26.23 14.22 26.81C14 27.39 14.3 28.04 14.88 28.25L26.38 32.54C26.51 32.59 26.64 32.61 26.77 32.61Z" fill="black"/>
<path d="M32.69 10.03C32.09 10.19 31.74 10.81 31.9 11.4L35.07 23.25C35.2 23.75 35.66 24.08 36.15 24.08C36.25 24.08 36.34 24.07 36.44 24.04C37.04 23.88 37.39 23.26 37.23 22.67L34.06 10.82C33.9 10.23 33.29 9.89001 32.69 10.03Z" fill="black"/>
<path d="M46.63 26.29C45.96 25.95 45.22 25.89 44.54 26.11C43.82 26.33 43.26 26.83 42.93 27.48C42.59 28.13 42.55 28.87 42.77 29.57L43.76 32.64C44.37 31.77 45.31 31.18 46.43 31.03C47.35 30.87 48.29 31.07 49.14 31.5L47.97 27.89C47.75 27.19 47.28 26.63 46.63 26.29Z" fill="black"/>
<path d="M51.63 33.74L52.28 32.75C53.18 31.34 54.9 30.75 56.56 31.11L54.59 24.97L53.47 21.54C53.25 20.84 52.77 20.26 52.1 19.93C51.45 19.59 50.71 19.55 50.01 19.77C48.57 20.24 47.77 21.79 48.24 23.22L50.93 31.56C50.93 31.56 50.93 31.56 50.93 31.58L51.63 33.74Z" fill="black"/>
<path d="M83.83 27.99C83.4 27.68 82.91 27.56 82.33 27.65C80.78 27.9 80.67 31.28 80.58 33.3C80.56 34 80.54 34.6 80.47 35.05C79.95 38.75 78.99 41.87 77.53 44.54C77.53 44.54 77.53 44.54 77.53 44.56C77.53 44.56 77.53 44.56 77.51 44.56C76.01 47.32 73.97 49.72 71.28 51.89C70.92 52.18 70.38 52.11 70.09 51.76C69.8 51.4 69.87 50.86 70.22 50.57C72.64 48.62 74.48 46.49 75.87 44.04L69.43 24.17C69.43 24.17 69.43 24.17 69.43 24.15L67.7 18.84C67.52 18.26 67.07 17.81 66.47 17.54C65.84 17.27 65.08 17.25 64.36 17.47C62.95 17.94 62.12 19.26 62.45 20.45L63.5 23.72C63.5 23.74 63.5 23.74 63.5 23.76L64.17 25.85L69.01 40.83C69.14 41.28 68.92 41.75 68.47 41.88C68.38 41.92 68.29 41.92 68.2 41.92C67.84 41.92 67.53 41.7 67.42 41.34L62.58 26.36L60.85 21.02C60.83 20.95 60.83 20.91 60.81 20.84C60.81 20.82 60.79 20.8 60.79 20.75L59.42 16.65C59.04 15.44 57.54 14.81 56.08 15.26C54.69 15.73 53.82 17.12 54.22 18.33L55.79 23.24L57.76 29.32C57.76 29.34 57.76 29.34 57.76 29.36L58.66 32.14C59.38 32.75 59.89 33.53 60.14 34.4C60.34 35.16 60.32 35.9 60.1 36.6L60.23 36.98C61.17 36.91 62.09 37.14 62.9 37.68C63.89 38.31 64.56 39.32 64.81 40.46C65.06 41.63 64.83 42.81 64.18 43.8L63.69 44.56C64.65 44.47 65.66 44.67 66.54 45.23C68.58 46.55 69.16 49.31 67.84 51.35L57.59 67.15C58.6 68.07 59.68 68.88 60.84 69.53C61.04 69.62 61.18 69.8 61.24 70L63.19 76.05L83.75 69.41L81.57 62.73C81.39 61.95 81.26 61.21 81.17 60.47C80.77 56.99 81.53 54.33 82.36 51.52L82.56 50.8C83.34 48.09 84.15 45.17 84.8 42.21C85.56 38.58 86.12 35.55 85.65 32.28C85.36 30.19 84.68 28.64 83.83 27.99Z" fill="black"/>
<path d="M65.62 46.67C64.34 45.84 62.64 46.2 61.83 47.48L51.14 63.9C50.87 64.3 50.36 64.42 49.97 64.15C49.57 63.9 49.45 63.39 49.72 63.01L58.02 50.25L62.8 42.92C63.18 42.31 63.32 41.57 63.18 40.86C63.02 40.14 62.6 39.51 61.99 39.11C61.36 38.73 60.64 38.59 59.93 38.75C59.19 38.88 58.58 39.31 58.18 39.92L53.4 47.28C53.4 47.28 53.38 47.3 53.36 47.3L46.77 57.46C46.61 57.71 46.34 57.84 46.05 57.84C45.89 57.84 45.74 57.8 45.6 57.71C45.22 57.46 45.11 56.93 45.35 56.54L58.29 36.67C58.6 36.18 58.69 35.53 58.51 34.9C58.33 34.23 57.88 33.62 57.28 33.22C56 32.39 54.39 32.59 53.69 33.69L52.14 36.07C52.12 36.09 52.1 36.11 52.1 36.14L51.18 37.53L48.13 42.24L39.52 55.4C39.36 55.67 39.09 55.8 38.82 55.8C38.66 55.8 38.51 55.76 38.37 55.64C37.97 55.39 37.85 54.88 38.12 54.5L46.71 41.29L49.76 36.6C50.07 36.08 50.16 35.46 49.98 34.83C49.78 34.16 49.33 33.57 48.7 33.15C48.07 32.75 47.35 32.59 46.66 32.68C46.01 32.77 45.47 33.08 45.14 33.6L42.09 38.29C42.09 38.31 42.07 38.31 42.07 38.31L30.5 56.09C30.41 56.22 30.32 56.31 30.19 56.4C30.17 56.4 30.15 56.42 30.12 56.42C30.05 56.44 30.03 56.46 29.96 56.49C29.92 56.51 29.85 56.49 29.8 56.49C29.78 56.51 29.78 56.51 29.76 56.51C29.76 56.51 29.76 56.51 29.74 56.51C29.58 56.49 29.45 56.47 29.31 56.38L29.29 56.36C29.2 56.32 29.13 56.25 29.09 56.16C29.05 56.12 29.05 56.07 29.02 56.03C29 55.99 28.95 55.94 28.95 55.9C28.95 55.88 28.95 55.88 28.95 55.86C28.95 55.86 28.95 55.86 28.93 55.86C28.21 52.9 28.1 49.65 28.57 45.93C28.64 45.48 28.77 44.88 28.93 44.2C29.38 42.25 30.16 38.95 28.71 38.32C28.17 38.07 27.68 38.05 27.19 38.25C26.18 38.65 25.13 39.98 24.32 41.88C22.97 44.97 22.71 48.14 22.53 51.68C22.4 54.82 22.42 57.94 22.44 60.56L22.46 61.37C22.5 64.29 22.55 67.04 21.25 70.25C20.94 71.12 20.58 71.82 20.33 72.27L16.45 78.24L34.54 90L38.02 84.66C38.13 84.48 38.31 84.35 38.51 84.3C40.77 83.72 42.88 82.75 44.79 81.38C46.65 80.06 48.22 78.42 49.48 76.51L55.71 66.93C55.73 66.93 55.73 66.91 55.73 66.89L66.43 50.45C67.26 49.21 66.9 47.5 65.62 46.67Z" fill="black"/>
</svg>
