<svg width="90" height="89" viewBox="0 0 90 89" fill="none" xmlns="http://www.w3.org/2000/svg">
<path d="M47.0026 37.8796C47.7799 34.8171 48.7409 31.8015 49.8073 28.8171C50.8776 25.8366 52.0768 22.8991 53.4011 20.0046C54.7058 17.1062 56.2019 14.2858 57.8152 11.5202C59.4207 8.75072 61.2683 6.11402 63.2332 3.54752C63.7215 2.9108 64.6316 2.78971 65.2684 3.27408C65.9051 3.76236 66.0262 4.67248 65.5418 5.30928C65.5184 5.33663 65.4989 5.36397 65.4754 5.39132L65.4403 5.43038C63.3895 7.72728 61.413 10.1257 59.6473 12.696C57.8778 15.2585 56.202 17.903 54.6981 20.6569C53.1825 23.3991 51.7723 26.2116 50.4833 29.0866C49.1981 31.9655 48.0104 34.8913 47.0026 37.8796ZM62.3146 23.7156C63.4982 22.9031 64.7326 22.1765 65.9865 21.5242C67.2326 20.8523 68.5412 20.3328 69.8381 19.8523L69.8967 19.8328C69.967 19.8055 70.0373 19.7742 70.1037 19.7351C70.8029 19.3367 71.0451 18.446 70.6428 17.7468C70.2443 17.0476 69.3537 16.8054 68.6545 17.2078C67.3186 17.9734 66.0178 18.7625 64.8225 19.6883C63.6155 20.5945 62.4709 21.5594 61.3967 22.5906C59.2444 24.6414 57.3029 26.8797 55.6584 29.3015C57.6857 27.1843 59.9357 25.3288 62.3146 23.7156ZM56.8537 35.0826C59.5842 33.3365 62.4357 31.7896 65.3576 30.442C68.2717 29.0709 71.299 27.9654 74.3732 27.1022C77.4318 26.1686 80.5959 25.7155 83.7287 25.3483L83.8146 25.3366C83.8498 25.3327 83.881 25.3288 83.9162 25.321C84.7014 25.1686 85.2209 24.4108 85.0685 23.6218C84.9161 22.8366 84.1583 22.3171 83.3693 22.4695C80.0763 23.0984 76.8107 23.8289 73.7091 25.0281C70.5919 26.1609 67.5724 27.5281 64.7013 29.1414C61.8224 30.7352 59.0568 32.5164 56.4396 34.4773C53.8263 36.4421 51.3224 38.5593 49.0412 40.8835C51.4904 38.7468 54.1271 36.8365 56.8537 35.0826ZM63.4748 37.6373C65.2756 37.4654 67.0803 37.4147 68.8732 37.4694C70.6662 37.5123 72.4435 37.692 74.1857 37.9928C75.9357 38.2584 77.6271 38.7545 79.2834 39.278L79.3537 39.3014C79.4123 39.321 79.4709 39.3327 79.5295 39.3444C80.3185 39.485 81.0764 38.9577 81.217 38.1686C81.3576 37.3795 80.8303 36.6217 80.0412 36.4811C78.1623 36.1452 76.2873 35.8639 74.4084 35.8288C72.5334 35.7545 70.6662 35.817 68.8225 36.0163C66.9787 36.2077 65.1545 36.5006 63.3616 36.9186C61.5725 37.3327 59.8069 37.8405 58.1038 38.4967C59.8772 38.0748 61.674 37.8092 63.4748 37.6373ZM60.7053 44.4264C63.8655 44.7389 67.01 45.1842 70.1194 45.7662C73.2249 46.3717 76.2835 47.1412 79.2756 48.0787C82.2483 49.067 85.1272 50.2662 87.8303 51.7232L87.8694 51.7428L87.9631 51.7896C88.6936 52.1178 89.5529 51.7857 89.8772 51.0553C90.2053 50.3248 89.8733 49.4655 89.1428 49.1412C86.1194 47.7935 83.01 46.7739 79.8655 45.9888C76.7093 45.2545 73.5296 44.7077 70.3382 44.3366C67.1429 43.9889 63.9476 43.778 60.7484 43.7076C57.5531 43.6412 54.3578 43.6842 51.1781 43.9147C54.3656 43.9186 57.5452 44.1217 60.7053 44.4264ZM56.4709 51.6725C59.0959 53.8756 61.5686 56.2545 63.8654 58.7702C66.1857 61.2702 68.2638 63.9733 70.1271 66.7897L71.4904 68.9225L72.7092 71.1334L73.3147 72.2389L73.8381 73.3834L74.8811 75.6646L74.928 75.7662C74.9397 75.7935 74.9553 75.8248 74.9709 75.8521C75.3538 76.5552 76.2366 76.817 76.9398 76.4342C77.6429 76.0513 77.9046 75.1685 77.5218 74.4653L76.2523 72.1333L75.6195 70.9692L74.9046 69.8559L73.471 67.6411L71.9007 65.5278C69.7679 62.7466 67.4398 60.1295 64.9046 57.7506C62.3851 55.3522 59.721 53.1256 56.9202 51.0944C54.1155 49.071 51.2014 47.1999 48.1468 45.61C51.0765 47.4186 53.8381 49.4772 56.4709 51.6725ZM65.01 50.4537C66.4241 51.3326 67.7639 52.3092 69.0139 53.3717C70.2756 54.4186 71.3967 55.61 72.4123 56.8483C73.4357 58.0866 74.2365 59.4616 74.9357 60.8444L74.9708 60.9186C75.0021 60.9772 75.0334 61.0319 75.0724 61.0866C75.5334 61.7468 76.4396 61.9069 77.0958 61.4499C77.756 60.989 77.9161 60.0827 77.4591 59.4265C76.4279 57.9421 75.3029 56.5515 73.9982 55.3679C72.7013 54.1843 71.3341 53.1062 69.8654 52.2077C68.4084 51.2936 66.8966 50.4968 65.342 49.8171C63.7873 49.1413 62.1936 48.5593 60.5686 48.1374C62.1194 48.7819 63.592 49.5787 65.01 50.4537ZM56.2131 64.8447C57.4983 68.1767 58.6506 71.5713 59.3615 74.9617L59.3654 74.9852C59.3771 75.0438 59.3967 75.1062 59.4162 75.1648C59.6857 75.9188 60.5178 76.3133 61.2717 76.0438C62.0256 75.7742 62.4201 74.9422 62.1506 74.1883C60.8928 70.6649 59.2639 67.411 57.5217 64.2313C55.7639 61.0633 53.885 57.9774 51.885 54.9852C53.4709 58.2157 54.9123 61.5126 56.2131 64.8447ZM49.2951 69.5947C50.1232 75.5674 50.8771 81.5517 51.4006 87.5207V87.5285C51.4045 87.5676 51.4084 87.6028 51.4162 87.6418C51.549 88.4309 52.299 88.9621 53.0881 88.8293C53.8772 88.6965 54.4084 87.9465 54.2756 87.1574C53.2639 81.1574 52.0256 75.2394 50.7209 69.3334C49.4045 63.435 48.0139 57.5564 46.5451 51.6964C47.5451 57.6573 48.4592 63.6267 49.2951 69.5947ZM39.0251 68.5556C38.7868 70.0517 38.6579 71.5712 38.5954 73.1064C38.529 74.6416 38.611 76.1962 38.7712 77.7626C38.779 77.8368 38.7946 77.9189 38.8142 77.9931C39.0212 78.7704 39.822 79.2314 40.5954 79.0204C41.3727 78.8134 41.8337 78.0126 41.6227 77.2392L41.6109 77.1962C41.2477 75.8407 40.9391 74.4423 40.7672 73.0126C40.5953 71.5829 40.4781 70.1259 40.4703 68.661C40.4391 65.7313 40.6656 62.7626 41.2008 59.8368C40.1969 62.6376 39.4821 65.5634 39.0251 68.5556ZM35.8181 55.2586C33.9822 58.0008 32.322 60.868 30.8454 63.8367C30.072 65.3055 29.4352 66.8406 28.7477 68.3523C28.1579 69.907 27.4821 71.4343 26.9899 73.0281C25.861 76.1726 25.1188 79.4461 24.4626 82.7469C24.4548 82.7782 24.4509 82.8172 24.447 82.8524C24.3493 83.6493 24.9118 84.3719 25.7087 84.4696C26.5056 84.5672 27.2282 84.0048 27.3259 83.2079L27.3337 83.1415C27.7282 79.9657 28.2048 76.7665 29.072 73.6532C29.4314 72.0751 29.9782 70.5477 30.4392 68.993C31.0017 67.4735 31.5134 65.9266 32.1619 64.4344C33.3963 61.4227 34.8181 58.4774 36.4353 55.6375C38.0486 52.7937 39.8181 50.0242 41.8337 47.4344C39.6306 49.8719 37.6501 52.5164 35.8181 55.2586ZM25.5841 59.2859C23.0724 62.3211 20.8224 65.6375 19.1857 69.3989C19.1623 69.4497 19.1427 69.5044 19.1271 69.5591C18.8966 70.3286 19.3302 71.1372 20.0959 71.3677C20.8654 71.5982 21.674 71.1646 21.9045 70.3989L21.9123 70.3716C22.4474 68.606 23.1193 66.8443 23.9435 65.1372C24.7833 63.438 25.7091 61.7583 26.7521 60.1411C28.8341 56.9067 31.2052 53.8208 33.8615 50.977C30.8732 53.4731 28.1114 56.2625 25.5841 59.2859ZM28.7169 48.8369C25.8067 49.8291 22.9474 51.0049 20.1622 52.3603C17.3692 53.708 14.7091 55.3291 12.1466 57.1259C9.5919 58.9423 7.2599 61.0868 5.0997 63.4384C5.07626 63.4658 5.04892 63.4931 5.02548 63.5244C4.52939 64.1533 4.63876 65.0674 5.27157 65.5635C5.90048 66.0595 6.81457 65.9502 7.31067 65.3174L7.35364 65.2627C9.16614 62.9541 11.1856 60.7627 13.4825 58.8408C15.7872 56.9385 18.2364 55.1611 20.8536 53.6338C23.463 52.0986 26.1778 50.7197 28.9786 49.5127C31.7794 48.3135 34.6505 47.2471 37.5997 46.4229C34.5919 47.0127 31.6309 47.8525 28.7169 48.8369ZM23.2872 44.5205C21.5958 44.6221 19.9005 44.8408 18.2286 45.2354C16.5645 45.6416 14.9005 46.126 13.3067 46.8252C12.4942 47.1377 11.7325 47.5634 10.9395 47.9385C10.1895 48.3799 9.4083 48.7939 8.6739 49.2744L8.65437 49.2861C8.59968 49.3212 8.54499 49.3642 8.49421 49.4072C7.89265 49.9384 7.83405 50.8564 8.3653 51.458C8.89655 52.0596 9.8145 52.1181 10.4161 51.5869C11.0138 51.0595 11.6583 50.5947 12.2794 50.0908C12.9435 49.6533 13.5841 49.1572 14.2872 48.7666C15.6544 47.9111 17.1349 47.2354 18.6466 46.6221C20.1661 46.0205 21.756 45.5752 23.3732 45.2393C24.9943 44.9112 26.6505 44.7002 28.3263 44.7119C26.674 44.4619 24.9786 44.4307 23.2872 44.5205ZM30.127 39.3408C27.0567 38.3838 23.9082 37.6455 20.7208 37.1142C17.5333 36.5595 14.2872 36.29 11.0255 36.2705C7.756 36.1806 4.4903 36.583 1.2325 37.083C1.19734 37.0869 1.16218 37.0947 1.12703 37.1025C0.345778 37.2822 -0.142473 38.0595 0.0372274 38.8408C0.216917 39.6221 0.994258 40.1103 1.77553 39.9306L1.85756 39.9111C4.87706 39.2158 7.95136 38.5908 11.0881 38.4384C14.217 38.2196 17.3811 38.2431 20.5334 38.5478C23.6857 38.829 26.8303 39.3212 29.9357 40.0361C33.0373 40.7587 36.1076 41.6572 39.0802 42.8447C36.2052 41.4424 33.1934 40.3017 30.127 39.3408ZM23.5997 29.9267C21.963 29.0908 20.2364 28.415 18.4591 27.8369C16.6818 27.2549 14.8185 26.8994 12.92 26.665C12.8614 26.6572 12.7911 26.6533 12.7286 26.6533C11.9239 26.6611 11.2794 27.3174 11.2872 28.1181C11.295 28.9228 11.9512 29.5673 12.752 29.5595H12.8145C14.5059 29.5478 16.2286 29.6298 17.9434 29.9462C19.6543 30.2587 21.3692 30.6728 23.0411 31.2626C26.3888 32.4149 29.6505 33.9774 32.6622 35.954C29.9356 33.5868 26.881 31.5712 23.5997 29.9267ZM27.4474 23.7314C25.4201 21.6884 23.2951 19.7353 21.0997 17.8525C18.9122 15.958 16.588 14.2158 14.2091 12.5283C14.1778 12.5049 14.1427 12.4814 14.1075 12.4619C13.4161 12.0557 12.5294 12.2822 12.1192 12.9736C11.713 13.665 11.9395 14.5517 12.631 14.9619L12.6661 14.9815C15.0802 16.4073 17.4747 17.8995 19.7599 19.5674C22.0568 21.2197 24.3029 22.9541 26.4669 24.7979C30.8067 28.4698 34.9396 32.4307 38.7369 36.7039C35.3111 32.1219 31.5098 27.806 27.4474 23.7314ZM34.9513 20.7119C33.799 17.915 32.4318 15.1455 30.2325 12.6963C30.1817 12.6377 30.1192 12.5791 30.0567 12.5284C29.4278 12.0284 28.5137 12.1299 28.0137 12.7588C27.5137 13.3877 27.6153 14.3018 28.2442 14.8018L28.2637 14.8174C30.3653 16.4932 32.1387 18.8722 33.6582 21.3566C35.1738 23.8644 36.4941 26.5324 37.5996 29.298C36.9512 26.3918 36.0763 23.5205 34.9513 20.7119ZM47.4163 19.3799C47.8577 17.6846 48.3655 16.0127 48.9475 14.376C49.5061 12.7276 50.1819 11.1338 50.8733 9.55572L50.8928 9.51666C50.9163 9.45807 50.9397 9.39947 50.9553 9.33697C51.178 8.56353 50.7288 7.75887 49.9592 7.54007C49.1858 7.31741 48.3811 7.76663 48.1623 8.53616C47.6623 10.2823 47.1936 12.0284 46.8537 13.7979C46.4866 15.5596 46.2092 17.3331 45.9944 19.1065C45.5647 22.6534 45.3811 26.2198 45.5334 29.7545C45.8615 26.235 46.5296 22.7666 47.4163 19.3799ZM40.7405 19.9659C40.3264 16.8721 39.9592 13.7745 39.6389 10.6847C39.3264 7.59876 39.0569 4.48156 39.0451 1.46986V1.44252C39.0451 1.40736 39.0451 1.3683 39.0412 1.33314C38.9748 0.53626 38.2756 -0.0613605 37.4787 0.00503952C36.6819 0.0714455 36.0842 0.77066 36.1506 1.56754C36.4124 4.79804 36.9319 7.88784 37.4865 10.9855C38.049 14.0753 38.6584 17.1496 39.3107 20.2121C40.6115 26.3371 42.0177 32.4311 43.5099 38.5011C42.4943 32.3331 41.5608 26.1529 40.7405 19.9659Z" fill="black"/>
</svg>
