<svg width="110" height="135" viewBox="0 0 110 135" fill="none" xmlns="http://www.w3.org/2000/svg">
<path d="M90.328 93.172H89.1757L89.1718 50.75C92.5546 49.3086 94.6523 45.5781 93.7695 41.7109L91.2109 30.8279C91.0781 30.2888 90.8828 29.7888 90.5937 29.3474C91.8632 30.0583 92.8242 31.2888 93.1718 32.7888L95.7304 43.6718C96.6132 47.5546 94.5195 51.289 91.1327 52.7304V93.2694C90.8827 93.2108 90.5975 93.172 90.328 93.172Z" fill="#9FA7B5"/>
<path d="M91.133 94.25C91.0549 94.25 90.9807 94.25 90.9221 94.2305C90.7306 94.1914 90.5197 94.1523 90.3244 94.1523H89.1721C88.633 94.1523 88.2112 93.7305 88.2112 93.1914V50.7504C88.2112 50.3676 88.4416 50.0199 88.7893 49.8676C91.887 48.559 93.5784 45.2153 92.8284 41.9262L90.2698 31.0432C90.1526 30.5823 90.0002 30.176 89.7893 29.8713C89.5393 29.5041 89.5979 29.0041 89.887 28.6994C90.1956 28.3713 90.676 28.2971 91.0589 28.5275C92.598 29.3947 93.7112 30.8752 94.098 32.5861L96.6566 43.4691C97.5589 47.4691 95.6566 51.5277 92.0785 53.3519V93.2739C92.0785 93.563 91.9457 93.852 91.7113 94.0239C91.5589 94.1724 91.3479 94.25 91.133 94.25ZM90.133 92.2109H90.1721V52.7499C90.1721 52.3671 90.4025 52.0194 90.7502 51.8671C93.6916 50.6171 95.3674 47.5194 94.883 44.4062C94.5939 47.3476 92.8439 50.0039 90.133 51.3867L90.133 92.2109Z" fill="#9FA7B5"/>
<path d="M95.941 98.789C95.941 100.789 94.3082 102.422 92.3082 102.422H19.6912C18.1521 102.422 16.8435 101.48 16.3084 100.172C16.7303 100.363 17.2107 100.461 17.7107 100.461H90.3277C92.3277 100.461 93.9605 98.8281 93.9605 96.8281V96.8085C93.9605 96.3281 93.8628 95.8671 93.6714 95.4413C94.9995 95.9413 95.941 97.2694 95.941 98.789Z" fill="#9FA7B5"/>
<path d="M92.309 103.383H19.692C17.8092 103.383 16.1334 102.266 15.4225 100.535C15.2702 100.168 15.3639 99.7462 15.653 99.4767C15.942 99.2072 16.3639 99.129 16.7116 99.3048C17.0006 99.4376 17.3444 99.4962 17.7116 99.4962H90.3286C91.8091 99.4962 93.0005 98.3048 93.0005 96.8243C93.0005 96.4572 92.9223 96.1329 92.8091 95.8439C92.6567 95.4767 92.7114 95.0743 92.9809 94.7853C93.2505 94.4962 93.6724 94.4025 94.02 94.5548C95.7505 95.2267 96.9028 96.9376 96.9028 98.8048V98.8243C96.9028 101.328 94.8481 103.383 92.309 103.383ZM19.231 101.402C19.3833 101.422 19.5396 101.442 19.6919 101.442H92.3089C93.7894 101.442 94.9808 100.25 94.9808 98.7893V98.7697C94.9808 98.4416 94.9222 98.1174 94.809 97.8283C94.348 99.8869 92.5004 101.406 90.3285 101.406L19.231 101.402Z" fill="#9FA7B5"/>
<path d="M88.211 51.02V92.211H19.828V51.02H17.9061V93.172C17.9061 93.7111 18.328 94.1329 18.867 94.1329H89.176C89.7151 94.1329 90.137 93.7111 90.137 93.172L90.1331 51.02H88.211Z" fill="#9FA7B5"/>
<path d="M21.922 52.367C17.0548 52.367 13.0939 48.4061 13.0939 43.5389C13.0939 42.8475 13.172 42.1561 13.3244 41.4998L15.8635 30.6328C16.5158 27.7656 19.0549 25.75 22.0158 25.75H32.2458C32.5153 25.75 32.7848 25.8672 32.9762 26.0781C33.1676 26.2891 33.2458 26.5586 33.2067 26.8477L30.7067 44.7496C30.0973 49.0777 26.3283 52.367 21.922 52.367ZM22.0197 27.672C19.9416 27.672 18.1916 29.0743 17.7306 31.0548L15.1915 41.9218C15.0743 42.4218 15.0196 42.9609 15.0196 43.5195C15.0196 47.3281 18.1173 50.4218 21.9219 50.4218C25.3633 50.4218 28.3242 47.8632 28.7891 44.4609L31.1368 27.6519H22.0196L22.0197 27.672Z" fill="#9FA7B5"/>
<path d="M38.059 52.367C35.309 52.367 32.8871 51.2498 31.1918 49.3279C29.5004 47.406 28.7504 44.8279 29.0941 42.3084L31.305 26.5784C31.3636 26.0979 31.7855 25.7503 32.2659 25.7503H46.7659C47.0355 25.7503 47.2855 25.8675 47.4574 26.0393C47.6292 26.2308 47.7269 26.4808 47.7269 26.7503L46.9378 43.9223C46.6917 48.6528 42.7895 52.367 38.059 52.367ZM33.0785 27.672L30.9808 42.574C30.7113 44.5545 31.3089 46.5545 32.6331 48.074C33.9612 49.5935 35.8636 50.4568 37.8636 50.4568C41.7464 50.4568 44.805 47.5545 44.9808 43.8396L45.7308 27.6676L33.0785 27.672Z" fill="#9FA7B5"/>
<path d="M54.133 52.367H53.8635C51.4221 52.367 49.133 51.3865 47.4416 49.617C45.7697 47.8475 44.9025 45.5389 45.0197 43.0975L45.7697 26.6565C45.7892 26.137 46.2111 25.7346 46.7306 25.7346H61.2306C61.7501 25.7346 62.172 26.137 62.1916 26.6565L62.9611 43.0975C63.0783 45.5389 62.2111 47.867 60.5197 49.6366C58.8674 51.3827 56.5783 52.367 54.133 52.367ZM47.6721 27.672L46.9612 43.192C46.8635 45.0943 47.5393 46.9225 48.844 48.3092C50.1721 49.692 51.9417 50.4615 53.8635 50.4615H54.133C56.0549 50.4615 57.8244 49.692 59.1525 48.3287C60.4806 46.9459 61.1525 45.1373 61.0744 43.2115L60.3439 27.6915H47.6719L47.6721 27.672Z" fill="#9FA7B5"/>
<path d="M70.152 52.367H69.9411C65.2106 52.367 61.3083 48.6561 61.0934 43.9256L60.3043 26.7536C60.2848 26.4841 60.3824 26.2341 60.5738 26.0427C60.7457 25.8513 60.9957 25.7536 61.2652 25.7536H75.7652C76.2457 25.7536 76.648 26.1013 76.7262 26.5817L78.9371 42.3117C79.2847 44.8508 78.5152 47.4094 76.8394 49.3508C75.1324 51.2492 72.6911 52.367 70.152 52.367ZM62.2692 27.672L63.0192 43.844C63.1911 47.5549 66.2497 50.4612 69.9606 50.4612H70.1715C72.1715 50.4612 74.0738 49.594 75.3824 48.094C76.7105 46.5745 77.3043 44.5745 77.0152 42.594L74.9371 27.692H62.2691L62.2692 27.672Z" fill="#9FA7B5"/>
<path d="M86.078 52.367C83.9452 52.367 81.8866 51.5975 80.2694 50.1951C78.6522 48.7928 77.5975 46.867 77.3085 44.7537L74.8085 26.8517C74.7694 26.5822 74.8476 26.2931 75.039 26.0822C75.2304 25.8712 75.4804 25.7541 75.7694 25.7541H86.0194C88.9803 25.7541 91.4999 27.7736 92.1522 30.6369L94.6913 41.5039C95.3085 44.1562 94.6913 46.9061 92.9804 49.0429C91.3085 51.1523 88.7889 52.367 86.078 52.367ZM76.8671 27.672L79.2148 44.481C79.4453 46.1333 80.2539 47.6529 81.5234 48.7505C82.7929 49.8482 84.4062 50.4614 86.082 50.4614C88.1992 50.4614 90.1797 49.5005 91.5039 47.8442C92.832 46.1723 93.3125 44.0356 92.832 41.9419L90.2734 31.0749C89.8125 29.0749 88.0625 27.6726 86.0039 27.6726L76.8671 27.672Z" fill="#9FA7B5"/>
<path d="M67.152 68.039V93.172H40.867V68.039C40.867 65.4413 42.9842 63.3281 45.5779 63.3281H62.4799C65.058 63.3476 67.152 65.4414 67.152 68.039Z" fill="#F7F8FA"/>
<path d="M67.152 94.133H40.867C40.3279 94.133 39.9061 93.7111 39.9061 93.1721L39.9022 68.0391C39.9022 64.9063 42.4413 62.3672 45.5741 62.3672H62.4761C65.5933 62.3672 68.1284 64.9063 68.1284 68.0391V93.1721C68.1166 93.7111 67.6911 94.133 67.152 94.133ZM41.828 92.2111H66.195L66.1911 68.0391C66.1911 65.9805 64.5192 64.2891 62.4606 64.2891H45.5776C43.519 64.2891 41.8276 65.961 41.8276 68.0391L41.828 92.2111Z" fill="#9FA7B5"/>
<path d="M90.328 101.402H17.711C15.1719 101.402 13.1133 99.3434 13.1133 96.8239C13.1133 94.2653 15.1719 92.2262 17.711 92.2262H90.328C92.8475 92.2262 94.9061 94.2848 94.9061 96.8043V96.8238C94.9217 99.3472 92.867 101.402 90.328 101.402ZM17.711 94.1325C16.2305 94.1325 15.0391 95.3239 15.0391 96.7848C15.0391 98.2653 16.25 99.4567 17.711 99.4567H90.328C91.7889 99.4567 92.9803 98.2653 92.9803 96.8044V96.7849C92.9803 95.324 91.7889 94.1326 90.328 94.1326L17.711 94.1325Z" fill="#9FA7B5"/>
<path d="M21.578 33.633C21.4999 35.3049 21.3671 36.9807 21.1952 38.633C21.0975 39.4611 21.1757 40.3244 20.8475 41.0939C20.5389 41.883 20.1561 42.633 19.4452 43.3244C19.4062 43.3635 19.328 43.3635 19.2734 43.3244C19.2538 43.3049 19.2538 43.3049 19.2538 43.2853C18.9062 42.3635 18.871 41.5158 18.9257 40.6681C18.9648 39.8205 19.3866 39.0704 19.6562 38.2853C20.1757 36.7072 20.7539 35.1525 21.3867 33.5939C21.4062 33.5353 21.4648 33.5158 21.5195 33.5353C21.5586 33.5588 21.578 33.5978 21.578 33.633Z" fill="#9FA7B5"/>
<path d="M84.922 23.383V26.6916C84.922 27.2307 84.4806 27.6525 83.9611 27.6525H24.0781C23.539 27.6525 23.1171 27.2307 23.1171 26.6916V23.383C23.1171 19.6525 26.1366 16.6135 29.8671 16.6135H78.1561C81.8827 16.6174 84.922 19.6526 84.922 23.383Z" fill="#9FA7B5"/>
</svg>
